# xmcd
#
# Track frame offsets:
#	150
#	3030
#	18182
#	38687
#	64157
#	86670
#	105490
#	125440
#	145895
#	166307
#	190745
#
# Disc length: 2848 seconds
#
# Revision: 1
# Processed by: cddbd v1.5.1PL0 Copyright (c) Steve Scherf et al.
# Submitted via: CDex 1.50Beta5
#
DISCID=7f0b1e0b
DTITLE=K. - Kirakira. Disc 1
DYEAR=2003
DGENRE=Rock
TTITLE0=Yeah yeah!!
TTITLE1=Sunrise city 8509
TTITLE2=Beautiful Sky…
TTITLE3=Deep Breathing
TTITLE4=We can find another World
TTITLE5=Starlight
TTITLE6=Butterfly
TTITLE7=Far away…
TTITLE8=Green Fruits
TTITLE9=Shiny days
TTITLE10=Kirakira.
EXTD=
EXTT0=
EXTT1=
EXTT2=
EXTT3=
EXTT4=
EXTT5=
EXTT6=
EXTT7=
EXTT8=
EXTT9=
EXTT10=
PLAYORDER=
